/* XPM */
static char *ed638abfac8247028e2dca4b434bebe0yy5MC8cXhjeGA9nM[] = {
/* columns rows colors chars-per-pixel */
"48 48 11 1 ",
"  c #329E1C",
". c ForestGreen",
"X c #41B216",
"o c #5DD50C",
"O c #4CC012",
"+ c #62DC0A",
"@ c #6CE806",
"# c #71EE04",
"$ c #77F502",
"% c LawnGreen",
"& c #90EE90",
/* pixels */
"%%%%%%%%%%%%%%%%%%%%%%%%%%%%%%%%%%%%%%%%%%%%%%%%",
"%%%%%%%%%%%%%%%%%%%%%%%%%%%%%%%%%%%%%%%%%%%%%%%%",
"%%%%%%%%%%%%%%%%%%%%%%%%%%%%%%%%%%%%%%%%%%%%%%%%",
"%%%%%%%%%%%%%%%%%%%%%%%%%%%%%%%%%%%%%%%%%%%%%%%%",
"%%%%&&&&%%%%....%%%%%%%%%%%%&&&&%%%%%%%%%%%%%%%%",
"%%%%&&&&%%%%....%%%%%%%%%%%%&&&&%%%%%%%%%%%%%%%%",
"%%%%&&&&%%%%....%%%%%%%%%%%%&&&&%%%%%%%%%%%%%%%%",
"%%%%&&&&%%%%....%%%%%%%%%%%%&&&&%%%%%%%%%%%%%%%%",
"%%%%%%%%%%%%%%%%&&&&%%%%%%%%%%%%%%%%....&&&&%%%%",
"%%%%%%%%%%%%%%%%&&&&%%%%%%%%%%%%%%%%....&&&&%%%%",
"%%%%%%%%%%%%%%%%&&&&%%%%%%%%%%%%%%%%....&&&&%%%%",
"%%%%%%%%%%%%%%%%&&&&%%%%%%%%%%%%%%%%....&&&&%%%%",
"%%%%%%%%%%%%%%%%%%%%....%%%%%%%%%%%%%%%%%%%%%%%%",
"%%%%%%%%%%%%%%%%%%%%....%%%%%%%%%%%%%%%%%%%%%%%%",
"%%%%%%%%%%%%%%%%%%%%....%%%%%%%%%%%%%%%%%%%%%%%%",
"%%%%%%%%%%%%%%%%%%%%....%%%%%%%%%%%%%%%%%%%%%%%%",
"%%%%%%%%&&&&%%%%%%%%%%%%%%%%....%%%%&&&&%%%%%%%%",
"%%%%%%%%&&&&%%%%%%%%%%%%%%%%....%%%%&&&&%%%%%%%%",
"%%%%%%%%&&&&%%%%%%%%%%%%%%%%....%%%%&&&&%%%%%%%%",
"%%%%%%%%&&&&%%%%%%%%%%%%%%%%....%%%%&&&&%%%%%%%%",
"%%%%....%%%%%%%%%%%%&&&&%%%%%%%%%%%%%%%%%%%%....",
"%%%%....%%%%%%%%%%%%&&&&%%%%%%%%%%%%%%%%%%%%....",
"%%%%....%%%%%%%%%%%%&&&&%%%%%%%%%%%%%%%%%%%%....",
"%%%%....%%%%%%%%%%%%&&&&%%%%%%%%%%%%%%%%%%%%....",
"%%%%%%%%%%%%%%%%%%%%%%%%%%%%%%%%%%%%%%%%%%%%%%%%",
"%%%%%%%%%%%%%%%%%%%%%%%%%%%%%%%%%%%%%%%%%%%%%%%%",
"%%%%%%%%%%%%%%%%%%%%%%%%%%%%%%%%%%%%%%%%%%%%%%%%",
"%%%%%%%%%%%%%%%%%%%#@@@$%%%%%%%%%%%%%%%%%%%%%%%%",
"%%%%%%%%%%%%&&&&%%%X...o%%%%%%%%%%%%%%%%&&&&%%%%",
"%%%%%%%%%%%%&&&&%%%X...o%%%%%%%%%%%%%%%%&&&&%%%%",
"%%%%%%%%%%%%&&&&%%%X...o%%%%%%%%%%%%%%%%&&&&%%%%",
"%%%%%%%%%%%%&&&&%%%O   +%%%%%%%%%%%%%%%%&&&&%%%%",
"%%%%%%%%....%%%%%%%%%%%%&&&&%%%%%%%%%%%%%%%%....",
"%%%%%%%%....%%%%%%%%%%%%&&&&%%%%%%%%%%%%%%%%....",
"%%%%%%%%....%%%%%%%%%%%%&&&&%%%%%%%%%%%%%%%%....",
"%%%%%%%%....%%%%%%%%%%%%&&&&%%%%%%%%%%%%%%%%....",
"%%%%&&&&%%%%%%%%%%%%%%%%%%%%%%%%&&&&%%%%%%%%%%%%",
"%%%%&&&&%%%%%%%%%%%%%%%%%%%%%%%%&&&&%%%%%%%%%%%%",
"%%%%&&&&%%%%%%%%%%%%%%%%%%%%%%%%&&&&%%%%%%%%%%%%",
"%%%%&&&&%%%%%%%%%%%%%%%%%%%%%%%%&&&&%%%%%%%%%%%%",
"%%%%%%%%%%%%%%%%&&&&%%%%%%%%....%%%%%%%%%%%%%%%%",
"%%%%%%%%%%%%%%%%&&&&%%%%%%%%....%%%%%%%%%%%%%%%%",
"%%%%%%%%%%%%%%%%&&&&%%%%%%%%....%%%%%%%%%%%%%%%%",
"%%%%%%%%%%%%%%%%&&&&%%%%%%%%....%%%%%%%%%%%%%%%%",
"%%%%%%%%%%%%%%%%%%%%%%%%%%%%%%%%%%%%%%%%....%%%%",
"%%%%%%%%%%%%%%%%%%%%%%%%%%%%%%%%%%%%%%%%....%%%%",
"%%%%%%%%%%%%%%%%%%%%%%%%%%%%%%%%%%%%%%%%....%%%%",
"%%%%%%%%%%%%%%%%%%%%%%%%%%%%%%%%%%%%%%%%....%%%%"
};
