/* XPM */
static char *d0f33ca545ec462bd5c4f78b4faf62dbpzoNp5LWiT54Ci95[] = {
/* columns rows colors chars-per-pixel */
"48 48 7 1 ",
"  c None",
". c black",
"X c SaddleBrown",
"o c tomato",
"O c MediumSeaGreen",
"+ c DodgerBlue",
"@ c #FFDBAC",
/* pixels */
"                                                ",
"                                                ",
"                                                ",
"                                                ",
"                                                ",
"                                                ",
"                                                ",
"                                                ",
"                XXXXXXXXXXXXXXXX                ",
"                XXXXXXXXXXXXXXXX                ",
"                XXXXXXXXXXXXXXXX                ",
"                XXXXXXXXXXXXXXXX                ",
"                XXXX@@@@@@@@XXXX                ",
"                XXXX@@@@@@@@XXXX                ",
"                XXXX@@@@@@@@XXXX                ",
"                XXXX@@@@@@@@XXXX                ",
"                    ..@@@@..                    ",
"                    ..@@@@..                    ",
"                    @@@@@@@@                    ",
"                    @@@@@@@@                    ",
"                    @@oooo@@                    ",
"                    @@@@@@@@                    ",
"                    @@@@@@@@                    ",
"                    @@@@@@@@                    ",
"        @@@@OOOOOOOOOOOOOOOOOOOOOOOO@@@@        ",
"        @@@@OOOOOOOOOOOOOOOOOOOOOOOO@@@@        ",
"        @@@@OOOOOOOOOOOOOOOOOOOOOOOO@@@@        ",
"        @@@@OOOOOOOOOOOOOOOOOOOOOOOO@@@@        ",
"            OOOOOOOOOOOOOOOOOOOOOOOO            ",
"            OOOOOOOOOOOOOOOOOOOOOOOO            ",
"            OOOOOOOOOOOOOOOOOOOOOOOO            ",
"            OOOOOOOOOOOOOOOOOOOOOOOO            ",
"                ++++++++++++++++                ",
"                ++++++++++++++++                ",
"                ++++++++++++++++                ",
"                ++++++++++++++++                ",
"                ++++++++++++++++                ",
"                ++++++++++++++++                ",
"                ++++++++++++++++                ",
"                ++++++++++++++++                ",
"                @@@@        @@@@                ",
"                @@@@        @@@@                ",
"                @@@@        @@@@                ",
"                @@@@        @@@@                ",
"                XXXX        XXXX                ",
"                XXXX        XXXX                ",
"                XXXX        XXXX                ",
"                XXXX        XXXX                "
};
