/* XPM */
static char *aa27efe8a1024aa0f9414fc0e12d2919vEZ4FWLUJRzisd50[] = {
/* columns rows colors chars-per-pixel */
"48 48 5 1 ",
"  c None",
". c red",
"X c SaddleBrown",
"o c LimeGreen",
"O c white",
/* pixels */
"                                                ",
"                                                ",
"                                                ",
"                                                ",
"                                                ",
"                                                ",
"                                                ",
"                                                ",
"                                oo              ",
"                                oo              ",
"                          XXoooo                ",
"                          XXoooo                ",
"                        XX                      ",
"                        XX                      ",
"                        XX                      ",
"                        XX                      ",
"                  ............                  ",
"                  ............                  ",
"                  ......OO....                  ",
"                  ......OO....                  ",
"                ......OO........                ",
"                ......OO........                ",
"              ....................              ",
"              ....................              ",
"              ....................              ",
"              ....................              ",
"                ................                ",
"                ................                ",
"                  ............                  ",
"                  ............                  ",
"                  ............                  ",
"                  ............                  ",
"                    ........                    ",
"                    ........                    ",
"                                                ",
"                                                ",
"                                                ",
"                                                ",
"                                                ",
"                                                ",
"                                                ",
"                                                ",
"                                                ",
"                                                ",
"                                                ",
"                                                ",
"                                                ",
"                                                "
};
