/* XPM */
static char *_3438ac8ef9a4a158cd9a99a979d911bUbLOq2KTPzjvNPvE[] = {
/* columns rows colors chars-per-pixel */
"48 48 3 1 ",
"  c #5A5A5A",
". c DimGray",
"X c #A9A9A9",
/* pixels */
"XXXXXXXXXXXXXXXX....................XXXXXXXXXXXX",
"XXXXXXXXXXXXXXXX....................XXXXXXXXXXXX",
"XXXXXXXXXXXXXXXX....................XXXXXXXXXXXX",
"XXXXXXXXXXXXXXXX....................XXXXXXXXXXXX",
"XXXXXXXXXXXXXXXX....................XXXXXXXXXXXX",
"XXXXXXXXXXXXXXXX....................XXXXXXXXXXXX",
"XXXXXXXXXXXXXXXX....  ..............XXXXXXXXXXXX",
"XXXXXXXXXXXXXXXX....  ..............XXXXXXXXXXXX",
"XXXXXXXXXXXXXXXX......  ............XXXXXXXXXXXX",
"XXXXXXXXXXXXXXXX......  ............XXXXXXXXXXXX",
"XXXXXXXXXXXXXXXX....................XXXXXXXXXXXX",
"XXXXXXXXXXXXXXXX....................XXXXXXXXXXXX",
"............XXXXXXXXXXXXXXXXXXXXXXXX............",
"............XXXXXXXXXXXXXXXXXXXXXXXX............",
"............XXXXXXXXXXXXXXXXXXXXXXXX............",
"............XXXXXXXXXXXXXXXXXXXXXXXX............",
"............XXXXXXXXXXXXXXXXXXXXXXXX............",
"............XXXXXXXXXXXXXXXXXXXXXXXX............",
"............XXXXXXXXXXXXXXXXXXXXXXXX............",
"............XXXXXXXXXXXXXXXXXXXXXXXX............",
"............XXXXXXXXXXXXXXXXXXXXXXXX............",
"............XXXXXXXXXXXXXXXXXXXXXXXX............",
"............XXXXXXXXXXXXXXXXXX  XXXX............",
"............XXXXXXXXXXXXXXXXXX  XXXX............",
"............XXXXXXXXXXXXXXXX    XXXX............",
"............XXXXXXXXXXXXXXXX    XXXX............",
"............XXXXXXXXXXXXXXXXXXXXXXXX............",
"............XXXXXXXXXXXXXXXXXXXXXXXX............",
"XXXXXXXXXXXXXXXXXXXXXXXX............XXXXXXXXXXXX",
"XXXXXXXXXXXXXXXXXXXXXXXX............XXXXXXXXXXXX",
"XXXXXXXXXXXXXXXXXXXXXXXX............XXXXXXXXXXXX",
"XXXXXXXXXXXXXXXXXXXXXXXX............XXXXXXXXXXXX",
"XXXXXXXXXXXXXXXXXXXXXXXX............XXXXXXXXXXXX",
"XXXXXXXXXXXXXXXXXXXXXXXX............XXXXXXXXXXXX",
"XXXXXXXXXXXXXXXXXXXXXXXX............XXXXXXXXXXXX",
"XXXXXXXXXXXXXXXXXXXXXXXX............XXXXXXXXXXXX",
"XXXXXXXXXX    XXXXXXXXXX............XXXXXXXXXXXX",
"XXXXXXXXXX    XXXXXXXXXX............XXXXXXXXXXXX",
"XXXXXXXXXXXX  XXXXXXXXXX............XXXXXXXXXXXX",
"XXXXXXXXXXXX  XXXXXXXXXX............XXXXXXXXXXXX",
"........XXXXXXXXXXXXXXXXXXXXXXXX................",
"........XXXXXXXXXXXXXXXXXXXXXXXX................",
"........XXXXXXXXXXXXXXXXXXXXXXXX................",
"........XXXXXXXXXXXXXXXXXXXXXXXX................",
"........XXXXXXXXXXXXXXXXXXXXXXXX................",
"........XXXXXXXXXXXXXXXXXXXXXXXX................",
"........XXXXXXXXXXXXXXXXXXXXXXXX................",
"........XXXXXXXXXXXXXXXXXXXXXXXX................"
};
