/* XPM */
static char *_3b1f9cc95844982b3f9febc7c009c9bEK1dmWug6F11UaQa[] = {
/* columns rows colors chars-per-pixel */
"48 48 5 1 ",
"  c None",
". c SaddleBrown",
"X c sienna",
"o c LimeGreen",
"O c gold",
/* pixels */
"                                                ",
"                                                ",
"                                                ",
"                                                ",
"        ................................        ",
"        ................................        ",
"      oo................................        ",
"      oo................................        ",
"    oo  ....XXXXXXXXXXXXXXXXXXXXXXXX....        ",
"    oo  ....XXXXXXXXXXXXXXXXXXXXXXXX....        ",
"    oo  ....XXXXXXXXXXXXXXXXXXXXXXXX....        ",
"    oo  ....XXXXXXXXXXXXXXXXXXXXXXXX....        ",
"      oo....XXXX................XXXX....oo      ",
"      oo....XXXX................XXXX....oo      ",
"        ....XXXX................XXXX....oo      ",
"        ....XXXX................XXXX....oo      ",
"        ....XXXXXXXXXXXXXXXXXXXXXXXX....  oo    ",
"        ....XXXXXXXXXXXXXXXXXXXXXXXX....  oo    ",
"        ....XXXXXXXXXXXXXXXXXXXXXXXX....  oo    ",
"        ....XXXXXXXXXXXXXXXXXXXXXXXX....  oo    ",
"        ....XXXX................XXXX....oo      ",
"        ....XXXX................XXXX....oo      ",
"        ....XXXX................XXXX....        ",
"        ....XXXX................XXXX....        ",
"        ....XXXXXXXXXXXXXXXXXXXXOOXX....        ",
"        ....XXXXXXXXXXXXXXXXXXXXOOXX....        ",
"        ....XXXXXXXXXXXXXXXXXXXXOOXX....        ",
"        ....XXXXXXXXXXXXXXXXXXXXOOXX....        ",
"        ....XXXX................XXXX....        ",
"        ....XXXX................XXXX....        ",
"        ....XXXX................XXXX....        ",
"        ....XXXX................XXXX....        ",
"        ....XXXXXXXXXXXXXXXXXXXXXXXX....        ",
"        ....XXXXXXXXXXXXXXXXXXXXXXXX....        ",
"        ....XXXXXXXXXXXXXXXXXXXXXXXX....        ",
"        ....XXXXXXXXXXXXXXXXXXXXXXXX....        ",
"        ....XXXXXXXXXXXXXXXXXXXXXXXX....        ",
"        ....XXXXXXXXXXXXXXXXXXXXXXXX....        ",
"        ....XXXXXXXXXXXXXXXXXXXXXXXX....        ",
"        ....XXXXXXXXXXXXXXXXXXXXXXXX....        ",
"        ................................        ",
"        ................................        ",
"        ................................        ",
"        ................................        ",
"                                                ",
"                                                ",
"                                                ",
"                                                "
};
